<svg width="1440" height="705" viewBox="0 0 1440 705" fill="none" xmlns="http://www.w3.org/2000/svg">
<path fill-rule="evenodd" clip-rule="evenodd" d="M-2843 78.7658L-2779.11 104.859C-2710.97 130.952 -2578.93 183.138 -2451.16 196.185C-2319.12 209.231 -2187.09 183.138 -2055.05 235.324C-1927.28 287.511 -1795.24 417.976 -1663.21 470.162C-1531.18 522.348 -1403.4 496.255 -1271.37 404.929C-1139.33 313.604 -1007.3 157.045 -875.265 157.045C-747.49 157.045 -615.456 313.604 -483.422 339.697C-351.387 365.79 -223.613 261.417 -91.5784 183.138C40.4558 104.859 172.49 52.6728 300.265 91.8124C432.299 130.952 564.333 261.417 696.367 287.511C828.402 313.604 956.177 235.324 1088.21 196.185C1220.25 157.045 1352.28 157.045 1480.05 222.278C1612.09 287.511 1744.12 417.976 1876.16 391.883C2003.93 365.79 2135.97 183.138 2204.11 91.8124L2268 0.486572V705H2204.11C2135.97 705 2003.93 705 1876.16 705C1744.12 705 1612.09 705 1480.05 705C1352.28 705 1220.25 705 1088.21 705C956.177 705 828.402 705 696.367 705C564.333 705 432.299 705 300.265 705C172.49 705 40.4558 705 -91.5784 705C-223.613 705 -351.387 705 -483.422 705C-615.456 705 -747.49 705 -875.265 705C-1007.3 705 -1139.33 705 -1271.37 705C-1403.4 705 -1531.18 705 -1663.21 705C-1795.24 705 -1927.28 705 -2055.05 705C-2187.09 705 -2319.12 705 -2451.16 705C-2578.93 705 -2710.97 705 -2779.11 705H-2843V78.7658Z" fill="#1E88E5"/>
</svg>
